<svg version="1.1" id="Layer_1" xmlns="http://www.w3.org/2000/svg" xmlns:xlink="http://www.w3.org/1999/xlink" x="0px" y="0px"
	 width="100%" viewBox="0 0 8000 8000"  xml:space="preserve">
<path fill="#007CCA" opacity="1.000000" stroke="none" 
	d="
M3392.000000,7960.000000 
	C3393.131348,7961.566895 3394.262695,7963.133301 3395.394043,7964.700195 
	C3387.962158,7974.564453 3387.901611,7974.009766 3374.557129,7975.467773 
	C3366.273682,7976.372559 3363.531250,7970.677246 3360.061523,7963.655273 
	C3359.772461,7960.454590 3358.065918,7959.147461 3358.260254,7958.734375 
	C3361.354004,7952.161621 3357.072266,7949.901367 3351.512207,7946.679688 
	C3340.678955,7936.456543 3337.362793,7924.866699 3336.229004,7911.654785 
	C3333.667480,7881.803223 3330.673584,7851.963379 3326.826660,7822.252441 
	C3318.616943,7758.848145 3308.833008,7695.687012 3295.983154,7633.020508 
	C3276.948486,7540.193848 3251.590820,7449.249023 3217.021973,7360.918945 
	C3172.348877,7246.770508 3112.624756,7140.830566 3043.364502,7040.005859 
	C2983.705566,6953.156738 2918.601074,6870.423828 2853.236328,6787.882324 
	C2765.949219,6677.656738 2678.727783,6567.378906 2591.323730,6457.246582 
	C2584.978027,6449.250488 2579.843262,6440.776855 2577.328125,6431.032227 
	C2574.476562,6419.983887 2572.519531,6408.341309 2578.316406,6397.833496 
	C2583.257568,6388.876465 2585.584229,6379.309082 2588.234863,6369.713379 
	C2602.788818,6317.025879 2614.084473,6263.619141 2622.919189,6209.703125 
	C2631.761230,6155.743652 2636.900879,6101.345215 2638.562744,6046.735840 
	C2640.102783,5996.125488 2638.202881,5945.555176 2633.053711,5895.092285 
	C2626.954102,5835.320312 2616.119141,5776.479980 2601.239990,5718.317871 
	C2579.715820,5634.180176 2549.283691,5553.220215 2514.229248,5473.912598 
	C2471.115967,5376.371582 2421.173340,5282.198730 2372.676758,5187.313477 
	C2335.389160,5114.357910 2298.984863,5040.982910 2266.755859,4965.601074 
	C2232.927734,4886.479004 2204.000977,4805.691406 2182.530762,4722.293945 
	C2164.057129,4650.537109 2151.378662,4577.760742 2144.995361,4503.977051 
	C2142.361816,4473.535156 2140.409668,4443.098633 2142.659424,4412.279297 
	C2149.059814,4324.609863 2154.562744,4236.885254 2163.370361,4149.398438 
	C2168.709229,4096.367676 2174.638672,4043.439697 2184.031006,3990.957520 
	C2188.726074,3964.723389 2193.929932,3938.544922 2203.627686,3913.614258 
	C2207.460693,3903.760498 2211.962891,3893.879883 2217.888672,3885.190186 
	C2228.672852,3869.376465 2243.633789,3866.930664 2259.368408,3878.117920 
	C2266.878662,3883.457764 2273.982178,3889.969482 2279.609619,3897.236328 
	C2292.234375,3913.538574 2304.899170,3929.987549 2315.607910,3947.559082 
	C2338.832520,3985.665527 2361.199463,4024.309082 2383.271240,4063.100586 
	C2429.075928,4143.602539 2475.336670,4223.810059 2527.701660,4300.310547 
	C2568.018799,4359.209961 2611.045654,4415.978516 2660.095215,4469.244141 
	C2662.229492,4472.279297 2663.679199,4475.624512 2667.140869,4473.359375 
	C2667.893066,4472.867188 2667.245117,4470.235352 2666.898438,4466.809570 
	C2664.342773,4452.571777 2662.000244,4440.134766 2659.940186,4427.651367 
	C2649.416016,4363.878418 2641.228516,4299.815918 2634.758545,4235.492676 
	C2628.222900,4170.514160 2623.938965,4105.387695 2621.410400,4040.183105 
	C2618.311523,3960.280762 2618.297852,3880.319824 2619.439453,3800.341797 
	C2620.428467,3731.057129 2622.914795,3661.857422 2626.857178,3592.698242 
	C2629.927490,3538.835205 2633.241699,3484.986084 2636.634277,3431.142334 
	C2637.932861,3410.535156 2639.593018,3389.947021 2641.361328,3369.373779 
	C2646.037354,3314.964111 2650.836914,3260.564941 2655.636719,3206.166016 
	C2660.144043,3155.078125 2664.595947,3103.984619 2669.287354,3052.913574 
	C2675.257812,2987.913574 2681.757080,2922.960449 2687.444092,2857.936035 
	C2692.434814,2800.876709 2697.039795,2743.775879 2701.053955,2686.639893 
	C2706.047363,2615.563477 2711.036865,2544.470459 2714.562256,2473.312012 
	C2717.395752,2416.114990 2718.028809,2358.809082 2719.695312,2301.552979 
	C2719.847656,2296.324463 2720.411377,2291.107666 2720.768555,2286.103027 
	C2723.319580,2284.855469 2724.977051,2283.702881 2726.812744,2283.197754 
	C2757.888184,2274.645020 2784.690186,2283.354980 2808.233887,2303.989014 
	C2827.557617,2320.924561 2841.520752,2341.997070 2853.436523,2364.527832 
	C2867.492676,2391.105469 2878.515137,2418.958008 2887.963623,2447.447021 
	C2908.975098,2510.800537 2923.237549,2575.843994 2936.069336,2641.227295 
	C2944.277832,2683.054443 2952.094482,2724.958008 2960.264893,2766.792969 
	C2961.101074,2771.074463 2963.157959,2775.117432 2965.694336,2782.184814 
	C2968.163086,2772.611328 2969.959229,2766.289062 2971.417480,2759.889893 
	C2982.824219,2709.835693 2997.354736,2660.691162 3014.270996,2612.237793 
	C3053.926758,2498.651611 3106.114746,2390.832031 3164.753906,2286.015625 
	C3227.916992,2173.113525 3298.074219,2064.541504 3369.365723,1956.681274 
	C3420.072754,1879.964111 3471.138916,1803.481201 3521.370361,1726.453857 
	C3597.480225,1609.743408 3669.984619,1490.899292 3731.088623,1365.450562 
	C3771.127686,1283.248657 3805.487061,1198.804443 3830.814941,1110.865234 
	C3848.912842,1048.028931 3862.452148,984.223267 3868.779053,919.045105 
	C3871.158691,894.531738 3872.800781,869.947327 3874.917725,845.407166 
	C3875.172607,842.451477 3876.300293,839.570923 3877.304199,835.523804 
	C3882.405273,837.427063 3886.150146,838.587463 3889.697998,840.186096 
	C3913.587891,850.951355 3934.955566,865.607483 3954.797852,882.602539 
	C3981.833008,905.758240 4004.117188,933.062317 4024.272217,962.212585 
	C4054.333740,1005.690918 4077.970703,1052.668945 4099.430176,1100.809570 
	C4127.654785,1164.126953 4150.798340,1229.457397 4175.992188,1293.979614 
	C4192.703613,1336.776611 4210.702637,1379.072876 4228.327148,1421.509033 
	C4230.264160,1426.172852 4231.387207,1432.010742 4238.654297,1433.635376 
	C4242.575195,1427.024780 4246.789062,1420.286499 4250.652344,1413.353027 
	C4341.203125,1250.836548 4422.395996,1083.732544 4495.480469,912.683472 
	C4576.404297,723.286133 4648.070312,530.436646 4709.379395,333.798645 
	C4728.804199,271.496521 4746.742188,208.730743 4766.915039,146.146820 
	C4771.424805,152.750412 4773.918945,159.638306 4777.404785,165.981293 
	C4864.399414,324.268280 4946.961426,484.800385 5022.075684,649.098694 
	C5087.765625,792.783569 5147.813477,938.736389 5198.393066,1088.495850 
	C5251.792480,1246.604126 5294.220703,1407.399048 5318.109863,1572.802734 
	C5326.306152,1629.549194 5332.781250,1686.526123 5335.214844,1743.757080 
	C5338.527344,1821.651489 5338.914551,1899.592651 5332.935547,1977.491333 
	C5328.853027,2030.681030 5322.914062,2083.621338 5314.777832,2136.292725 
	C5302.874512,2213.346924 5286.818848,2289.618164 5269.928223,2365.719482 
	C5247.990723,2464.562744 5225.137695,2563.218750 5210.116699,2663.466309 
	C5201.518555,2720.848877 5195.974121,2778.510742 5193.323242,2836.428467 
	C5190.485840,2898.418457 5193.096191,2960.275391 5199.081055,3022.048828 
	C5205.904297,3092.479492 5218.175293,3161.915283 5234.620605,3230.695801 
	C5261.025879,3341.133057 5298.083496,3448.012451 5341.505859,3552.786133 
	C5368.298828,3617.433838 5397.621094,3680.934326 5428.648438,3743.647949 
	C5431.105469,3748.614502 5432.428711,3754.900879 5438.607910,3757.323975 
	C5440.771973,3755.739258 5442.582031,3754.776123 5443.918945,3753.364502 
	C5447.582520,3749.496582 5451.124023,3745.506836 5454.578125,3741.448975 
	C5484.175293,3706.676025 5507.031250,3667.608154 5526.757324,3626.671875 
	C5555.168945,3567.713867 5577.152832,3506.262207 5596.011719,3443.677002 
	C5639.158203,3300.492432 5667.855469,3154.105225 5692.020996,3006.755615 
	C5701.506836,2948.917480 5710.122070,2890.932129 5718.610840,2832.937012 
	C5724.785645,2790.751221 5730.290039,2748.464355 5735.751465,2706.178223 
	C5741.810059,2659.265381 5747.408203,2612.292969 5753.338867,2565.363525 
	C5760.773438,2506.536377 5767.858887,2447.659424 5775.994141,2388.928467 
	C5783.579102,2334.174316 5791.797852,2279.492676 5800.867676,2224.967285 
	C5804.240723,2204.689697 5810.450684,2184.839355 5816.138184,2165.015381 
	C5818.115234,2158.122559 5821.786133,2151.472900 5825.815918,2145.472900 
	C5830.785156,2138.073730 5838.490723,2138.264893 5844.026855,2145.519775 
	C5847.227051,2149.714355 5850.112305,2154.370117 5852.070801,2159.247070 
	C5856.285156,2169.739502 5860.751953,2180.277588 5863.438965,2191.208984 
	C5871.862305,2225.479248 5880.788574,2259.703369 5887.221680,2294.371582 
	C5908.980957,2411.626465 5927.252930,2529.441162 5940.494629,2649.707031 
	C5941.527832,2670.293701 5942.796875,2689.138184 5943.736328,2709.827148 
	C5943.657227,2724.084229 5943.607422,2736.512695 5944.258301,2748.904053 
	C5944.734375,2757.970215 5946.130859,2766.988037 5947.415039,2777.819336 
	C5947.814453,2791.219482 5947.913574,2802.827637 5948.020020,2814.435791 
	C5948.045410,2817.213623 5948.985352,2819.352783 5952.000000,2820.000000 
	C5960.817871,2817.913574 5962.935059,2818.425781 5964.498047,2823.844238 
	C5965.592773,2827.637451 5966.491211,2831.622070 5966.593262,2835.543945 
	C5967.021973,2852.052734 5967.222656,2868.569824 5967.260254,2885.084473 
	C5967.269043,2889.044189 5966.450684,2893.026123 5965.795898,2896.961670 
	C5964.949219,2902.052734 5961.527832,2904.977783 5952.898438,2906.074951 
	C5948.261230,2919.812988 5947.675293,2934.265137 5946.524414,2950.195801 
	C5945.365723,2974.491455 5944.771973,2997.308594 5944.049805,3021.917480 
	C5943.224121,3034.766357 5942.417480,3045.817383 5941.860352,3056.881104 
	C5941.336426,3067.270508 5941.076660,3077.673584 5940.297852,3089.769043 
	C5936.946777,3125.317627 5934.537598,3159.225098 5930.939453,3193.006104 
	C5923.672363,3261.234619 5915.006348,3329.285156 5904.829102,3397.161621 
	C5889.512207,3499.314209 5870.738770,3600.827148 5850.068359,3701.998535 
	C5818.863281,3854.733887 5782.497070,4006.302246 5746.531738,4157.963379 
	C5710.106934,4311.561035 5673.808594,4465.190430 5638.237793,4618.987305 
	C5616.320801,4713.748047 5597.572754,4809.199219 5580.650391,4904.977051 
	C5565.814941,4988.945312 5552.179199,5073.127930 5543.003906,5157.939941 
	C5537.344727,5210.248535 5532.245605,5262.622070 5527.430664,5315.015625 
	C5525.175781,5339.549316 5523.706543,5364.180664 5522.723145,5388.800781 
	C5520.597168,5442.033691 5518.859375,5495.283691 5517.335449,5548.537109 
	C5517.013184,5559.814941 5518.399902,5571.133789 5518.801758,5582.440918 
	C5520.196777,5621.712402 5521.070801,5661.007324 5522.940918,5700.255859 
	C5526.146484,5767.517578 5533.618652,5834.363770 5543.363770,5900.987305 
	C5558.333008,6003.329590 5580.573730,6104.035645 5610.215820,6203.119629 
	C5629.895508,6268.903320 5652.421387,6333.704102 5679.117188,6396.959961 
	C5684.411621,6409.505371 5684.757812,6419.661133 5676.396484,6430.165527 
	C5675.166504,6431.709961 5674.389160,6433.614746 5673.402832,6435.353516 
	C5592.527832,6577.949219 5511.461426,6720.437988 5430.822754,6863.167480 
	C5320.031250,7059.267090 5209.858887,7255.717285 5098.832031,7451.683594 
	C5042.658203,7550.833496 4985.355469,7649.353516 4923.738281,7745.269531 
	C4898.516113,7784.530273 4872.874023,7823.580078 4842.854004,7859.395020 
	C4829.631836,7875.170410 4814.855469,7889.714355 4800.063965,7904.076172 
	C4791.431152,7912.457031 4780.852539,7918.215820 4768.831543,7921.163574 
	C4758.136230,7923.786621 4748.668457,7921.487793 4741.112793,7914.147461 
	C4735.472656,7908.668457 4730.373535,7902.143555 4726.765625,7895.186523 
	C4722.201172,7886.386719 4718.913574,7876.827637 4715.921875,7867.329590 
	C4708.088379,7842.461914 4703.938965,7816.777344 4700.449707,7791.024902 
	C4692.036621,7728.921387 4688.256348,7666.396973 4684.538086,7603.895508 
	C4681.572754,7554.035156 4679.441406,7504.122070 4677.282715,7454.217773 
	C4674.403809,7387.672363 4671.874512,7321.112305 4669.160645,7254.559082 
	C4667.125977,7204.641602 4665.221191,7154.717773 4662.919922,7104.812012 
	C4660.771973,7058.239746 4658.183594,7011.688477 4655.775391,6965.128418 
	C4654.089355,6932.532227 4652.640137,6899.921387 4650.625488,6867.345215 
	C4647.169922,6811.503418 4643.460449,6755.676270 4639.658203,6699.856934 
	C4636.806641,6657.988281 4633.905762,6616.120117 4630.552246,6574.289551 
	C4626.027344,6517.850586 4621.180176,6461.436523 4616.223633,6405.033691 
	C4611.908203,6355.922852 4607.497070,6306.817383 4602.671875,6257.754395 
	C4597.977051,6210.023438 4592.786133,6162.339355 4587.646973,6114.653320 
	C4584.868652,6088.869141 4581.742676,6063.123047 4578.893555,6038.405762 
	C4576.583984,6036.066895 4575.312988,6034.475586 4573.750000,6033.259277 
	C4570.069336,6030.394531 4566.276367,6027.671875 4562.481934,6024.956543 
	C4495.791992,5977.239258 4422.875977,5941.978027 4345.039062,5916.692871 
	C4280.825195,5895.833008 4215.019043,5882.586914 4147.915039,5875.108398 
	C4088.157227,5868.449219 4028.289062,5866.469238 3968.315918,5869.348633 
	C3912.388428,5872.032715 3856.782227,5878.186523 3801.631592,5888.201172 
	C3732.662354,5900.726562 3665.085693,5918.420410 3599.099609,5942.091309 
	C3592.975586,5944.288086 3586.037109,5945.245117 3581.063232,5951.937500 
	C3580.700439,5955.008301 3580.200684,5958.942383 3579.774902,5962.884766 
	C3576.628418,5992.027344 3573.495117,6021.171875 3570.360352,6050.315430 
	C3565.516113,6095.356445 3560.557861,6140.384766 3555.863525,6185.441406 
	C3551.307373,6229.173340 3546.984375,6272.929688 3542.629150,6316.682129 
	C3537.614502,6367.061035 3532.580078,6417.438477 3527.739746,6467.834473 
	C3524.491211,6501.654297 3521.539062,6535.502930 3518.501953,6569.342773 
	C3515.048828,6607.821777 3511.498291,6646.292480 3508.266357,6684.790039 
	C3504.866943,6725.282227 3501.747803,6765.798828 3498.591064,6806.311035 
	C3495.072998,6851.466309 3491.479492,6896.616699 3488.226074,6941.791504 
	C3483.106689,7012.876953 3478.047363,7083.967773 3473.331543,7155.081055 
	C3468.968262,7220.877930 3465.046631,7286.704102 3461.010498,7352.522461 
	C3456.892822,7419.670410 3452.811768,7486.820312 3448.827637,7553.976074 
	C3445.514160,7609.830566 3442.443848,7665.699219 3439.109131,7721.552246 
	C3437.322510,7751.469238 3434.693604,7781.344727 3433.386475,7811.279785 
	C3432.198242,7838.495605 3429.040527,7865.629883 3430.602783,7892.991211 
	C3431.550293,7909.587891 3425.506836,7924.396973 3414.935059,7937.194824 
	C3411.547607,7941.294434 3407.625977,7944.952637 3402.637695,7949.196777 
	C3398.337158,7951.402344 3397.133545,7953.518555 3397.722412,7957.480957 
	C3398.490234,7962.646484 3395.306152,7962.243652 3392.000000,7960.000000 
M3748.622070,4458.798828 
	C3744.369141,4487.127441 3740.085205,4515.451660 3735.870117,4543.785645 
	C3728.518066,4593.208496 3721.085938,4642.620117 3713.918213,4692.069336 
	C3707.706055,4734.924316 3701.733154,4777.814941 3695.803711,4820.709961 
	C3689.783936,4864.260742 3683.854248,4907.824707 3678.062256,4951.406250 
	C3674.200928,4980.462891 3670.593750,5009.554199 3667.047363,5038.651367 
	C3666.696289,5041.531250 3665.382324,5045.362793 3670.937500,5047.214355 
	C3675.130127,5043.922363 3679.895020,5040.479492 3684.330078,5036.654297 
	C3741.411377,4987.425293 3801.073975,4941.467285 3861.625488,4896.636230 
	C3936.623779,4841.109863 4012.024658,4786.119141 4086.579590,4730.004395 
	C4166.542969,4669.818848 4243.066406,4605.541016 4312.901855,4533.611816 
	C4349.630859,4495.780762 4383.603516,4455.640137 4415.466309,4413.629395 
	C4423.021973,4403.666504 4425.674316,4394.052246 4422.108887,4382.153809 
	C4420.403809,4376.463379 4420.233887,4370.325684 4419.178223,4364.424805 
	C4396.532227,4237.863770 4372.367676,4111.609863 4344.580078,3986.053711 
	C4289.389160,3736.680664 4222.348145,3490.654053 4136.215820,3250.085693 
	C4110.174805,3177.353027 4081.534668,3105.550049 4053.980469,3033.361084 
	C4052.162109,3028.597412 4049.449707,3024.174561 4045.782959,3016.859863 
	C4043.064453,3026.075684 4041.006348,3032.246582 4039.424316,3038.536865 
	C4016.030518,3131.553467 3991.932861,3224.401855 3969.524658,3317.655762 
	C3930.766113,3478.952637 3895.789551,3641.100342 3864.038818,3803.922607 
	C3846.954102,3891.535645 3830.413818,3979.263672 3814.659668,4067.124756 
	C3798.435791,4157.606445 3783.358887,4248.294434 3767.997559,4338.928711 
	C3761.429443,4377.681152 3755.412842,4416.526367 3748.622070,4458.798828 
z"/>
<path fill="#000000" opacity="1.000000" stroke="none" 
	d="
M4765.360840,146.177216 
	C4746.742188,208.730743 4728.804199,271.496521 4709.379395,333.798645 
	C4648.070312,530.436646 4576.404297,723.286133 4495.480469,912.683472 
	C4422.395996,1083.732544 4341.203125,1250.836548 4250.652344,1413.353027 
	C4246.789062,1420.286499 4242.575195,1427.024780 4238.654297,1433.635376 
	C4231.387207,1432.010742 4230.264160,1426.172852 4228.327148,1421.509033 
	C4210.702637,1379.072876 4192.703613,1336.776611 4175.992188,1293.979614 
	C4150.798340,1229.457397 4127.654785,1164.126953 4099.430176,1100.809570 
	C4077.970703,1052.668945 4054.333740,1005.690918 4024.272217,962.212585 
	C4004.117188,933.062317 3981.833008,905.758240 3954.797852,882.602539 
	C3934.955566,865.607483 3913.587891,850.951355 3889.697998,840.186096 
	C3886.150146,838.587463 3882.405273,837.427063 3877.304199,835.523804 
	C3876.300293,839.570923 3875.172607,842.451477 3874.917725,845.407166 
	C3872.800781,869.947327 3871.158691,894.531738 3868.779053,919.045105 
	C3862.452148,984.223267 3848.912842,1048.028931 3830.814941,1110.865234 
	C3805.487061,1198.804443 3771.127686,1283.248657 3731.088623,1365.450562 
	C3669.984619,1490.899292 3597.480225,1609.743408 3521.370361,1726.453857 
	C3471.138916,1803.481201 3420.072754,1879.964111 3369.365723,1956.681274 
	C3298.074219,2064.541504 3227.916992,2173.113525 3164.753906,2286.015625 
	C3106.114746,2390.832031 3053.926758,2498.651611 3014.270996,2612.237793 
	C2997.354736,2660.691162 2982.824219,2709.835693 2971.417480,2759.889893 
	C2969.959229,2766.289062 2968.163086,2772.611328 2965.694336,2782.184814 
	C2963.157959,2775.117432 2961.101074,2771.074463 2960.264893,2766.792969 
	C2952.094482,2724.958008 2944.277832,2683.054443 2936.069336,2641.227295 
	C2923.237549,2575.843994 2908.975098,2510.800537 2887.963623,2447.447021 
	C2878.515137,2418.958008 2867.492676,2391.105469 2853.436523,2364.527832 
	C2841.520752,2341.997070 2827.557617,2320.924561 2808.233887,2303.989014 
	C2784.690186,2283.354980 2757.888184,2274.645020 2726.812744,2283.197754 
	C2724.977051,2283.702881 2723.319580,2284.855469 2720.768555,2286.103027 
	C2720.411377,2291.107666 2719.847656,2296.324463 2719.695312,2301.552979 
	C2718.028809,2358.809082 2717.395752,2416.114990 2714.562256,2473.312012 
	C2711.036865,2544.470459 2706.047363,2615.563477 2701.053955,2686.639893 
	C2697.039795,2743.775879 2692.434814,2800.876709 2687.444092,2857.936035 
	C2681.757080,2922.960449 2675.257812,2987.913574 2669.287354,3052.913574 
	C2664.595947,3103.984619 2660.144043,3155.078125 2655.636719,3206.166016 
	C2650.836914,3260.564941 2646.037354,3314.964111 2641.361328,3369.373779 
	C2639.593018,3389.947021 2637.932861,3410.535156 2636.634277,3431.142334 
	C2633.241699,3484.986084 2629.927490,3538.835205 2626.857178,3592.698242 
	C2622.914795,3661.857422 2620.428467,3731.057129 2619.439453,3800.341797 
	C2618.297852,3880.319824 2618.311523,3960.280762 2621.410400,4040.183105 
	C2623.938965,4105.387695 2628.222900,4170.514160 2634.758545,4235.492676 
	C2641.228516,4299.815918 2649.416016,4363.878418 2659.940186,4427.651367 
	C2662.000244,4440.134766 2664.342773,4452.571777 2665.038086,4466.693848 
	C2662.279541,4468.319824 2661.037354,4468.282715 2659.795410,4468.245605 
	C2611.045654,4415.978516 2568.018799,4359.209961 2527.701660,4300.310547 
	C2475.336670,4223.810059 2429.075928,4143.602539 2383.271240,4063.100586 
	C2361.199463,4024.309082 2338.832520,3985.665527 2315.607910,3947.559082 
	C2304.899170,3929.987549 2292.234375,3913.538574 2279.609619,3897.236328 
	C2273.982178,3889.969482 2266.878662,3883.457764 2259.368408,3878.117920 
	C2243.633789,3866.930664 2228.672852,3869.376465 2217.888672,3885.190186 
	C2211.962891,3893.879883 2207.460693,3903.760498 2203.627686,3913.614258 
	C2193.929932,3938.544922 2188.726074,3964.723389 2184.031006,3990.957520 
	C2174.638672,4043.439697 2168.709229,4096.367676 2163.370361,4149.398438 
	C2154.562744,4236.885254 2149.059814,4324.609863 2142.659424,4412.279297 
	C2140.409668,4443.098633 2142.361816,4473.535156 2144.995361,4503.977051 
	C2151.378662,4577.760742 2164.057129,4650.537109 2182.530762,4722.293945 
	C2204.000977,4805.691406 2232.927734,4886.479004 2266.755859,4965.601074 
	C2298.984863,5040.982910 2335.389160,5114.357910 2372.676758,5187.313477 
	C2421.173340,5282.198730 2471.115967,5376.371582 2514.229248,5473.912598 
	C2549.283691,5553.220215 2579.715820,5634.180176 2601.239990,5718.317871 
	C2616.119141,5776.479980 2626.954102,5835.320312 2633.053711,5895.092285 
	C2638.202881,5945.555176 2640.102783,5996.125488 2638.562744,6046.735840 
	C2636.900879,6101.345215 2631.761230,6155.743652 2622.919189,6209.703125 
	C2614.084473,6263.619141 2602.788818,6317.025879 2588.234863,6369.713379 
	C2585.584229,6379.309082 2583.257568,6388.876465 2578.316406,6397.833496 
	C2572.519531,6408.341309 2574.476562,6419.983887 2577.328125,6431.032227 
	C2579.843262,6440.776855 2584.978027,6449.250488 2591.323730,6457.246582 
	C2678.727783,6567.378906 2765.949219,6677.656738 2853.236328,6787.882324 
	C2918.601074,6870.423828 2983.705566,6953.156738 3043.364502,7040.005859 
	C3112.624756,7140.830566 3172.348877,7246.770508 3217.021973,7360.918945 
	C3251.590820,7449.249023 3276.948486,7540.193848 3295.983154,7633.020508 
	C3308.833008,7695.687012 3318.616943,7758.848145 3326.826660,7822.252441 
	C3330.673584,7851.963379 3333.667480,7881.803223 3336.229004,7911.654785 
	C3337.362793,7924.866699 3340.678955,7936.456543 3351.303711,7948.213867 
	C3351.854248,7953.985840 3351.927002,7956.992676 3352.000000,7960.000000 
	C2915.520996,7960.013184 2479.041748,7960.039062 2042.562622,7959.936035 
	C2034.676025,7959.934570 2026.789795,7958.397461 2017.943848,7957.014648 
	C2016.656128,7956.302246 2016.328125,7956.150879 2016.000000,7956.000000 
	C2014.682129,7950.910645 2012.854248,7945.886719 2012.188965,7940.713379 
	C2011.513916,7935.464355 2011.960449,7930.067871 2011.960449,7924.735840 
	C2011.958496,6343.739746 2011.960205,4762.744141 2011.962646,3181.748047 
	C2011.962646,3179.748535 2011.971802,3177.748779 2013.186523,3174.777100 
	C2015.153198,3172.030273 2015.909790,3170.255615 2017.456299,3169.711914 
	C2026.316162,3216.504150 2045.687256,3256.928223 2073.945312,3293.291504 
	C2079.254639,3300.123779 2084.418701,3306.817627 2086.934082,3315.466553 
	C2093.597900,3338.382812 2107.285156,3357.228027 2123.247314,3374.450195 
	C2128.173340,3379.765137 2133.972656,3384.530273 2140.079590,3388.442871 
	C2159.863525,3401.117676 2173.937744,3395.277832 2180.831543,3372.763672 
	C2183.273682,3364.787842 2180.802002,3358.667725 2177.163086,3352.078369 
	C2149.473389,3301.939941 2138.306152,3247.604004 2137.348389,3190.917480 
	C2136.728516,3154.238525 2140.490723,3117.784668 2146.113770,3081.586426 
	C2153.877686,3031.610596 2162.948242,2981.830078 2170.174561,2931.780518 
	C2176.544678,2887.658447 2180.372803,2843.333008 2177.413574,2798.522461 
	C2175.427490,2768.448486 2168.962402,2739.286133 2163.201416,2709.950684 
	C2160.312012,2695.236816 2148.398193,2685.903076 2133.566895,2684.452393 
	C2113.475342,2682.487305 2097.197998,2691.468262 2087.585693,2709.508057 
	C2082.175293,2719.662354 2079.376221,2730.027832 2080.124756,2741.839600 
	C2081.471680,2763.106689 2080.167969,2784.336182 2077.488525,2805.554932 
	C2072.803467,2842.659424 2063.797363,2878.789795 2054.483887,2914.885254 
	C2045.008667,2951.605957 2035.345337,2988.279297 2026.141602,3025.067627 
	C2022.445557,3039.841553 2019.755005,3054.866943 2016.509766,3068.041992 
	C2016.081909,3063.355957 2014.638672,3062.534180 2012.000000,3064.000000 
	C2011.985352,2446.749756 2011.967896,1829.499390 2011.957153,1212.249146 
	C2011.951050,868.961975 2011.953003,525.674805 2011.977051,182.387634 
	C2011.977661,174.394989 2011.832642,166.360428 2012.568726,158.420807 
	C2013.406250,149.385117 2017.539062,145.678406 2026.639404,144.451843 
	C2029.271362,144.097168 2031.955200,144.066864 2034.617676,144.015045 
	C2038.615723,143.937210 2042.616089,143.959808 2046.615479,143.959824 
	C2951.160645,143.964264 3855.705811,143.970474 4762.439453,144.549194 
	C4764.627441,145.121750 4765.360840,146.177200 4765.360840,146.177216 
M2792.470947,1785.086792 
	C2792.905029,1771.106689 2792.283203,1756.997559 2793.973877,1743.171021 
	C2798.742432,1704.174927 2804.221436,1665.260132 2809.872314,1626.379028 
	C2815.338623,1588.771118 2820.784424,1551.186279 2819.663086,1513.032593 
	C2818.716553,1480.827881 2812.751709,1449.669678 2801.725586,1419.265381 
	C2792.549072,1393.962036 2769.212402,1378.284790 2741.234131,1379.498901 
	C2715.585449,1380.611694 2696.795898,1398.706909 2695.427246,1423.124390 
	C2694.574463,1438.333740 2691.681396,1453.503906 2688.756592,1468.506836 
	C2682.107910,1502.612793 2669.964355,1535.127686 2659.068604,1568.001953 
	C2647.966064,1601.501221 2636.653076,1634.945801 2626.413574,1668.712036 
	C2617.887451,1696.828491 2612.649414,1725.692383 2611.878174,1755.198975 
	C2610.678955,1801.071899 2623.134033,1842.282959 2655.145752,1876.063354 
	C2665.154541,1886.625000 2676.205811,1896.967163 2688.615967,1904.303955 
	C2707.110596,1915.237671 2720.480469,1929.478882 2729.971924,1948.568726 
	C2734.650635,1957.979004 2741.685791,1966.398682 2748.603271,1974.451904 
	C2753.288818,1979.907471 2759.145752,1984.747314 2765.327148,1988.444458 
	C2777.380859,1995.653687 2789.240479,1993.288940 2796.550049,1981.413208 
	C2801.687256,1973.066772 2805.911133,1963.551392 2807.941162,1954.004761 
	C2816.572510,1913.406738 2814.047363,1873.064331 2801.072021,1833.722900 
	C2796.199707,1818.949829 2793.493408,1804.134521 2792.470947,1785.086792 
z"/>
<path fill="#000000" opacity="1.000000" stroke="none" 
	d="
M3403.948730,7948.812500 
	C3407.625977,7944.952637 3411.547607,7941.294434 3414.935059,7937.194824 
	C3425.506836,7924.396973 3431.550293,7909.587891 3430.602783,7892.991211 
	C3429.040527,7865.629883 3432.198242,7838.495605 3433.386475,7811.279785 
	C3434.693604,7781.344727 3437.322510,7751.469238 3439.109131,7721.552246 
	C3442.443848,7665.699219 3445.514160,7609.830566 3448.827637,7553.976074 
	C3452.811768,7486.820312 3456.892822,7419.670410 3461.010498,7352.522461 
	C3465.046631,7286.704102 3468.968262,7220.877930 3473.331543,7155.081055 
	C3478.047363,7083.967773 3483.106689,7012.876953 3488.226074,6941.791504 
	C3491.479492,6896.616699 3495.072998,6851.466309 3498.591064,6806.311035 
	C3501.747803,6765.798828 3504.866943,6725.282227 3508.266357,6684.790039 
	C3511.498291,6646.292480 3515.048828,6607.821777 3518.501953,6569.342773 
	C3521.539062,6535.502930 3524.491211,6501.654297 3527.739746,6467.834473 
	C3532.580078,6417.438477 3537.614502,6367.061035 3542.629150,6316.682129 
	C3546.984375,6272.929688 3551.307373,6229.173340 3555.863525,6185.441406 
	C3560.557861,6140.384766 3565.516113,6095.356445 3570.360352,6050.315430 
	C3573.495117,6021.171875 3576.628418,5992.027344 3579.774902,5962.884766 
	C3580.200684,5958.942383 3580.700439,5955.008301 3581.063232,5951.937500 
	C3586.037109,5945.245117 3592.975586,5944.288086 3599.099609,5942.091309 
	C3665.085693,5918.420410 3732.662354,5900.726562 3801.631592,5888.201172 
	C3856.782227,5878.186523 3912.388428,5872.032715 3968.315918,5869.348633 
	C4028.289062,5866.469238 4088.157227,5868.449219 4147.915039,5875.108398 
	C4215.019043,5882.586914 4280.825195,5895.833008 4345.039062,5916.692871 
	C4422.875977,5941.978027 4495.791992,5977.239258 4562.481934,6024.956543 
	C4566.276367,6027.671875 4570.069336,6030.394531 4573.750000,6033.259277 
	C4575.312988,6034.475586 4576.583984,6036.066895 4578.893555,6038.405762 
	C4581.742676,6063.123047 4584.868652,6088.869141 4587.646973,6114.653320 
	C4592.786133,6162.339355 4597.977051,6210.023438 4602.671875,6257.754395 
	C4607.497070,6306.817383 4611.908203,6355.922852 4616.223633,6405.033691 
	C4621.180176,6461.436523 4626.027344,6517.850586 4630.552246,6574.289551 
	C4633.905762,6616.120117 4636.806641,6657.988281 4639.658203,6699.856934 
	C4643.460449,6755.676270 4647.169922,6811.503418 4650.625488,6867.345215 
	C4652.640137,6899.921387 4654.089355,6932.532227 4655.775391,6965.128418 
	C4658.183594,7011.688477 4660.771973,7058.239746 4662.919922,7104.812012 
	C4665.221191,7154.717773 4667.125977,7204.641602 4669.160645,7254.559082 
	C4671.874512,7321.112305 4674.403809,7387.672363 4677.282715,7454.217773 
	C4679.441406,7504.122070 4681.572754,7554.035156 4684.538086,7603.895508 
	C4688.256348,7666.396973 4692.036621,7728.921387 4700.449707,7791.024902 
	C4703.938965,7816.777344 4708.088379,7842.461914 4715.921875,7867.329590 
	C4718.913574,7876.827637 4722.201172,7886.386719 4726.765625,7895.186523 
	C4730.373535,7902.143555 4735.472656,7908.668457 4741.112793,7914.147461 
	C4748.668457,7921.487793 4758.136230,7923.786621 4768.831543,7921.163574 
	C4780.852539,7918.215820 4791.431152,7912.457031 4800.063965,7904.076172 
	C4814.855469,7889.714355 4829.631836,7875.170410 4842.854004,7859.395020 
	C4872.874023,7823.580078 4898.516113,7784.530273 4923.738281,7745.269531 
	C4985.355469,7649.353516 5042.658203,7550.833496 5098.832031,7451.683594 
	C5209.858887,7255.717285 5320.031250,7059.267090 5430.822754,6863.167480 
	C5511.461426,6720.437988 5592.527832,6577.949219 5673.402832,6435.353516 
	C5674.389160,6433.614746 5675.166504,6431.709961 5676.396484,6430.165527 
	C5684.757812,6419.661133 5684.411621,6409.505371 5679.117188,6396.959961 
	C5652.421387,6333.704102 5629.895508,6268.903320 5610.215820,6203.119629 
	C5580.573730,6104.035645 5558.333008,6003.329590 5543.363770,5900.987305 
	C5533.618652,5834.363770 5526.146484,5767.517578 5522.940918,5700.255859 
	C5521.070801,5661.007324 5520.196777,5621.712402 5518.801758,5582.440918 
	C5518.399902,5571.133789 5517.013184,5559.814941 5517.335449,5548.537109 
	C5518.859375,5495.283691 5520.597168,5442.033691 5522.723145,5388.800781 
	C5523.706543,5364.180664 5525.175781,5339.549316 5527.430664,5315.015625 
	C5532.245605,5262.622070 5537.344727,5210.248535 5543.003906,5157.939941 
	C5552.179199,5073.127930 5565.814941,4988.945312 5580.650391,4904.977051 
	C5597.572754,4809.199219 5616.320801,4713.748047 5638.237793,4618.987305 
	C5673.808594,4465.190430 5710.106934,4311.561035 5746.531738,4157.963379 
	C5782.497070,4006.302246 5818.863281,3854.733887 5850.068359,3701.998535 
	C5870.738770,3600.827148 5889.512207,3499.314209 5904.829102,3397.161621 
	C5915.006348,3329.285156 5923.672363,3261.234619 5930.939453,3193.006104 
	C5934.537598,3159.225098 5936.946777,3125.317627 5941.385742,3090.459717 
	C5945.772461,3090.823242 5948.036621,3094.453369 5952.000000,3092.000000 
	C5952.019531,3099.999023 5952.056641,3107.998047 5952.056641,3115.997070 
	C5952.059082,4717.144043 5952.062988,6318.290527 5951.974609,7919.437500 
	C5951.973633,7930.668945 5953.846680,7942.131836 5948.967773,7953.990234 
	C5947.813965,7955.253418 5947.278320,7955.626953 5946.743164,7956.000977 
	C5947.162598,7956.000977 5947.581055,7956.000488 5948.000000,7956.000000 
	C5943.580566,7957.299805 5939.235352,7959.163574 5934.723145,7959.752930 
	C5929.475098,7960.437500 5924.081055,7960.051758 5918.750488,7960.051758 
	C5081.750000,7960.050293 4244.749512,7960.041992 3406.553223,7958.724609 
	C3404.887695,7954.547852 3404.418213,7951.680176 3403.948730,7948.812500 
M5835.518066,5513.174805 
	C5859.570801,5455.716797 5875.981445,5396.211426 5882.260254,5334.166992 
	C5884.876953,5308.310059 5885.167969,5282.337402 5880.655273,5256.518555 
	C5877.414551,5237.973633 5853.315918,5175.763672 5842.947754,5160.335938 
	C5830.480469,5141.783691 5812.851562,5131.793457 5790.638184,5132.645508 
	C5746.736816,5134.328613 5710.843262,5172.753418 5711.487305,5208.301270 
	C5711.590820,5214.015137 5709.895020,5220.190430 5707.497070,5225.453613 
	C5687.687500,5268.938477 5685.543945,5314.135742 5694.041504,5360.331055 
	C5700.220703,5393.926270 5710.899414,5426.134766 5727.128906,5456.219238 
	C5733.081543,5467.252441 5734.987793,5478.375488 5734.911621,5490.613281 
	C5734.795410,5509.234375 5735.173828,5527.899414 5736.395508,5546.476562 
	C5737.401367,5561.763184 5740.262695,5576.938477 5747.374512,5590.766602 
	C5755.033203,5605.657227 5766.537109,5608.308594 5780.284668,5598.808594 
	C5790.920898,5591.458008 5798.875000,5581.423828 5805.187500,5570.501465 
	C5815.495117,5552.666016 5824.658203,5534.169922 5835.518066,5513.174805 
z"/>
<path fill="#000000" opacity="1.000000" stroke="none" 
	d="
M4766.915039,146.146820 
	C4765.360840,146.177200 4764.627441,145.121750 4764.313477,144.560883 
	C5149.814453,143.980042 5535.628418,143.945358 5921.442871,144.043503 
	C5929.328125,144.045517 5937.213379,145.591873 5946.026367,147.152832 
	C5947.302246,147.925262 5947.651367,147.962631 5948.000000,147.999969 
	C5949.300781,152.418915 5951.165527,156.764282 5951.754395,161.276215 
	C5952.439453,166.524124 5952.052734,171.917847 5952.052734,177.248276 
	C5952.051270,998.249084 5952.042969,1819.249878 5950.852539,2641.541504 
	C5946.690430,2644.543457 5943.710449,2646.254395 5940.729980,2647.965088 
	C5927.252930,2529.441162 5908.980957,2411.626465 5887.221680,2294.371582 
	C5880.788574,2259.703369 5871.862305,2225.479248 5863.438965,2191.208984 
	C5860.751953,2180.277588 5856.285156,2169.739502 5852.070801,2159.247070 
	C5850.112305,2154.370117 5847.227051,2149.714355 5844.026855,2145.519775 
	C5838.490723,2138.264893 5830.785156,2138.073730 5825.815918,2145.472900 
	C5821.786133,2151.472900 5818.115234,2158.122559 5816.138184,2165.015381 
	C5810.450684,2184.839355 5804.240723,2204.689697 5800.867676,2224.967285 
	C5791.797852,2279.492676 5783.579102,2334.174316 5775.994141,2388.928467 
	C5767.858887,2447.659424 5760.773438,2506.536377 5753.338867,2565.363525 
	C5747.408203,2612.292969 5741.810059,2659.265381 5735.751465,2706.178223 
	C5730.290039,2748.464355 5724.785645,2790.751221 5718.610840,2832.937012 
	C5710.122070,2890.932129 5701.506836,2948.917480 5692.020996,3006.755615 
	C5667.855469,3154.105225 5639.158203,3300.492432 5596.011719,3443.677002 
	C5577.152832,3506.262207 5555.168945,3567.713867 5526.757324,3626.671875 
	C5507.031250,3667.608154 5484.175293,3706.676025 5454.578125,3741.448975 
	C5451.124023,3745.506836 5447.582520,3749.496582 5443.918945,3753.364502 
	C5442.582031,3754.776123 5440.771973,3755.739258 5438.607910,3757.323975 
	C5432.428711,3754.900879 5431.105469,3748.614502 5428.648438,3743.647949 
	C5397.621094,3680.934326 5368.298828,3617.433838 5341.505859,3552.786133 
	C5298.083496,3448.012451 5261.025879,3341.133057 5234.620605,3230.695801 
	C5218.175293,3161.915283 5205.904297,3092.479492 5199.081055,3022.048828 
	C5193.096191,2960.275391 5190.485840,2898.418457 5193.323242,2836.428467 
	C5195.974121,2778.510742 5201.518555,2720.848877 5210.116699,2663.466309 
	C5225.137695,2563.218750 5247.990723,2464.562744 5269.928223,2365.719482 
	C5286.818848,2289.618164 5302.874512,2213.346924 5314.777832,2136.292725 
	C5322.914062,2083.621338 5328.853027,2030.681030 5332.935547,1977.491333 
	C5338.914551,1899.592651 5338.527344,1821.651489 5335.214844,1743.757080 
	C5332.781250,1686.526123 5326.306152,1629.549194 5318.109863,1572.802734 
	C5294.220703,1407.399048 5251.792480,1246.604126 5198.393066,1088.495850 
	C5147.813477,938.736389 5087.765625,792.783569 5022.075684,649.098694 
	C4946.961426,484.800385 4864.399414,324.268280 4777.404785,165.981293 
	C4773.918945,159.638306 4771.424805,152.750412 4766.915039,146.146820 
z"/>
<path fill="#007BC8" opacity="1.000000" stroke="none" 
	d="
M2016.606689,3069.777832 
	C2019.755005,3054.866943 2022.445557,3039.841553 2026.141602,3025.067627 
	C2035.345337,2988.279297 2045.008667,2951.605957 2054.483887,2914.885254 
	C2063.797363,2878.789795 2072.803467,2842.659424 2077.488525,2805.554932 
	C2080.167969,2784.336182 2081.471680,2763.106689 2080.124756,2741.839600 
	C2079.376221,2730.027832 2082.175293,2719.662354 2087.585693,2709.508057 
	C2097.197998,2691.468262 2113.475342,2682.487305 2133.566895,2684.452393 
	C2148.398193,2685.903076 2160.312012,2695.236816 2163.201416,2709.950684 
	C2168.962402,2739.286133 2175.427490,2768.448486 2177.413574,2798.522461 
	C2180.372803,2843.333008 2176.544678,2887.658447 2170.174561,2931.780518 
	C2162.948242,2981.830078 2153.877686,3031.610596 2146.113770,3081.586426 
	C2140.490723,3117.784668 2136.728516,3154.238525 2137.348389,3190.917480 
	C2138.306152,3247.604004 2149.473389,3301.939941 2177.163086,3352.078369 
	C2180.802002,3358.667725 2183.273682,3364.787842 2180.831543,3372.763672 
	C2173.937744,3395.277832 2159.863525,3401.117676 2140.079590,3388.442871 
	C2133.972656,3384.530273 2128.173340,3379.765137 2123.247314,3374.450195 
	C2107.285156,3357.228027 2093.597900,3338.382812 2086.934082,3315.466553 
	C2084.418701,3306.817627 2079.254639,3300.123779 2073.945312,3293.291504 
	C2045.687256,3256.928223 2026.316162,3216.504150 2017.249756,3167.995117 
	C2015.941162,3160.447998 2015.628906,3155.849121 2015.501221,3149.926270 
	C2015.205200,3145.414551 2017.241211,3141.148193 2012.000000,3140.000000 
	C2003.128418,3141.985107 2000.691284,3141.771973 1999.202637,3136.779785 
	C1996.071045,3126.277344 1994.441528,3115.319580 1997.863037,3104.683350 
	C1998.824341,3101.695068 2003.552246,3099.918701 2010.564331,3098.462891 
	C2014.821655,3095.904297 2015.067017,3092.468750 2015.563477,3087.409668 
	C2016.078491,3080.449951 2016.342651,3075.113770 2016.606689,3069.777832 
z"/>
<path fill="#101010" opacity="1.000000" stroke="none" 
	d="
M5953.665527,3090.759766 
	C5948.036621,3094.453369 5945.772461,3090.823242 5941.789062,3088.761230 
	C5941.076660,3077.673584 5941.336426,3067.270508 5941.860352,3056.881104 
	C5942.417480,3045.817383 5943.224121,3034.766357 5945.539551,3022.830566 
	C5949.705078,3023.617676 5951.312500,3022.949951 5952.000000,3020.000000 
	C5953.982422,3023.174072 5957.627441,3026.323730 5957.674805,3029.525879 
	C5957.952637,3048.356689 5957.420410,3067.200684 5957.036621,3086.037354 
	C5957.012207,3087.209229 5955.924316,3088.359619 5953.665527,3090.759766 
z"/>
<path fill="#101011" opacity="1.000000" stroke="none" 
	d="
M5940.494629,2649.707031 
	C5943.710449,2646.254395 5946.690430,2644.543457 5950.835449,2643.416260 
	C5953.704102,2645.880127 5956.659180,2647.604492 5956.916016,2649.664795 
	C5959.243652,2668.352539 5961.258301,2687.103760 5952.840332,2705.286133 
	C5948.207520,2705.980225 5946.136230,2706.981445 5944.065430,2707.982910 
	C5942.796875,2689.138184 5941.527832,2670.293701 5940.494629,2649.707031 
z"/>
<path fill="#004774" opacity="1.000000" stroke="none" 
	d="
M5943.736328,2709.827148 
	C5946.136230,2706.981445 5948.207520,2705.980225 5951.139160,2706.489258 
	C5953.748047,2707.204590 5955.496094,2706.409668 5957.244141,2705.614746 
	C5969.564941,2719.524170 5969.686523,2722.478271 5953.680664,2733.458496 
	C5948.687988,2735.096191 5948.171875,2738.307617 5948.429199,2741.455566 
	C5948.506348,2742.394531 5950.749512,2743.156738 5952.000000,2744.000000 
	C5957.193848,2743.667480 5959.204102,2746.096924 5953.446289,2751.828613 
	C5948.169922,2760.351318 5947.643555,2768.189453 5947.117188,2776.027344 
	C5946.130859,2766.988037 5944.734375,2757.970215 5944.258301,2748.904053 
	C5943.607422,2736.512695 5943.657227,2724.084229 5943.736328,2709.827148 
z"/>
<path fill="#004774" opacity="1.000000" stroke="none" 
	d="
M5955.525391,3021.296387 
	C5951.312500,3022.949951 5949.705078,3023.617676 5945.667969,3021.038574 
	C5944.771973,2997.308594 5945.365723,2974.491455 5946.761719,2951.842773 
	C5947.749023,2959.035400 5947.774902,2966.071289 5948.288086,2973.071533 
	C5948.365723,2974.132568 5950.706055,2975.027832 5952.000000,2976.000000 
	C5957.193848,2975.667480 5959.204102,2978.096924 5953.532227,2983.684570 
	C5948.675781,2988.585205 5948.259766,2992.955322 5948.465820,2997.295898 
	C5948.511230,2998.250732 5950.763672,2999.101318 5952.000000,3000.000000 
	C5953.843262,2999.320312 5955.686035,2998.640625 5957.529297,2997.960938 
	C5968.602051,3008.663574 5968.699707,3010.242920 5955.525391,3021.296387 
z"/>
<path fill="#CFCFD0" opacity="1.000000" stroke="none" 
	d="
M5954.557617,2977.850098 
	C5950.706055,2975.027832 5948.365723,2974.132568 5948.288086,2973.071533 
	C5947.774902,2966.071289 5947.749023,2959.035400 5947.326172,2950.364014 
	C5947.675293,2934.265137 5948.261230,2919.812988 5950.423828,2904.680664 
	C5953.494629,2902.674561 5954.989258,2901.348877 5956.512207,2899.998291 
	C5965.057129,2900.582520 5966.656250,2907.402832 5967.772949,2913.711914 
	C5968.560547,2918.161621 5967.282227,2922.941895 5967.270508,2927.575439 
	C5967.251465,2934.830322 5967.533203,2942.085693 5967.668945,2949.341064 
	C5967.768066,2954.628906 5967.670898,2959.926025 5967.958008,2965.202881 
	C5968.390625,2973.160645 5963.997559,2977.314453 5954.557617,2977.850098 
z"/>
<path fill="#CFCFD0" opacity="1.000000" stroke="none" 
	d="
M5947.415039,2777.819336 
	C5947.643555,2768.189453 5948.169922,2760.351318 5950.348633,2752.256836 
	C5958.137695,2748.437744 5962.627441,2749.056641 5964.159668,2754.482422 
	C5965.927734,2760.745605 5967.244629,2767.294678 5967.548340,2773.776123 
	C5968.041992,2784.314941 5967.455566,2794.900146 5967.511230,2805.464844 
	C5967.555176,2813.869629 5965.224121,2820.799561 5954.460449,2822.241211 
	C5948.985352,2819.352783 5948.045410,2817.213623 5948.020020,2814.435791 
	C5947.913574,2802.827637 5947.814453,2791.219482 5947.415039,2777.819336 
z"/>
<path fill="#101010" opacity="1.000000" stroke="none" 
	d="
M3353.163086,7961.509766 
	C3351.927002,7956.992676 3351.854248,7953.985840 3351.989746,7949.444824 
	C3357.072266,7949.901367 3361.354004,7952.161621 3358.260254,7958.734375 
	C3358.065918,7959.147461 3359.772461,7960.454590 3362.297363,7960.672852 
	C3361.727051,7964.055664 3358.405029,7964.750488 3353.163086,7961.509766 
z"/>
<path fill="#101010" opacity="1.000000" stroke="none" 
	d="
M3402.637695,7949.196777 
	C3404.418213,7951.680176 3404.887695,7954.547852 3404.678711,7958.708008 
	C3401.727051,7964.055664 3398.405029,7964.750488 3393.163086,7961.509766 
	C3395.306152,7962.243652 3398.490234,7962.646484 3397.722412,7957.480957 
	C3397.133545,7953.518555 3398.337158,7951.402344 3402.637695,7949.196777 
z"/>
<path fill="#9F9F9F" opacity="1.000000" stroke="none" 
	d="
M2016.509766,3068.041992 
	C2016.342651,3075.113770 2016.078491,3080.449951 2014.751221,3087.095215 
	C2013.687988,3088.404541 2012.000000,3088.000000 2012.000000,3088.000000 
	C2009.807007,3089.418213 2007.614014,3090.836426 2005.420898,3092.254395 
	C1992.730591,3081.581787 1992.750854,3074.263672 2008.754883,3062.129639 
	C2014.638672,3062.534180 2016.081909,3063.355957 2016.509766,3068.041992 
z"/>
<path fill="#9F9F9F" opacity="1.000000" stroke="none" 
	d="
M2015.316650,3151.250244 
	C2015.628906,3155.849121 2015.941162,3160.447998 2016.459961,3166.763916 
	C2015.909790,3170.255615 2015.153198,3172.030273 2013.198242,3172.902344 
	C2009.701294,3173.224854 2007.402588,3174.449463 2005.108276,3175.671875 
	C1995.708252,3160.525146 1995.708252,3160.525146 2009.232178,3150.032715 
	C2013.683960,3151.738281 2015.316650,3151.250244 2015.316650,3151.250244 
z"/>
<path fill="#CFCFD0" opacity="1.000000" stroke="none" 
	d="
M5955.848633,3001.364502 
	C5950.763672,2999.101318 5948.511230,2998.250732 5948.465820,2997.295898 
	C5948.259766,2992.955322 5948.675781,2988.585205 5950.433594,2984.112793 
	C5954.344727,2982.933350 5956.688965,2981.866699 5959.078613,2980.779785 
	C5965.240723,2987.928467 5966.149414,2995.217285 5955.848633,3001.364502 
z"/>
<path fill="#9FC6DD" opacity="1.000000" stroke="none" 
	d="
M2015.501221,3149.926270 
	C2015.316650,3151.250244 2013.683960,3151.738281 2012.842041,3151.869141 
	C2009.430420,3152.593750 2006.860718,3153.187012 2004.291016,3153.780518 
	C1998.999512,3148.775635 2001.085693,3143.419922 2007.771729,3139.023438 
	C2017.241211,3141.148193 2015.205200,3145.414551 2015.501221,3149.926270 
z"/>
<path fill="#9FC6DD" opacity="1.000000" stroke="none" 
	d="
M2007.771729,3087.023438 
	C2012.000000,3088.000000 2013.687988,3088.404541 2014.500244,3088.718994 
	C2015.067017,3092.468750 2014.821655,3095.904297 2013.288086,3099.669922 
	C2009.430298,3100.593506 2006.860718,3101.187012 2004.291016,3101.780518 
	C1998.999512,3096.775635 2001.085693,3091.419922 2007.771729,3087.023438 
z"/>
<path fill="#CFCFD0" opacity="1.000000" stroke="none" 
	d="
M5956.592773,2745.111328 
	C5950.749512,2743.156738 5948.506348,2742.394531 5948.429199,2741.455566 
	C5948.171875,2738.307617 5948.687988,2735.096191 5950.454102,2731.954590 
	C5955.075684,2731.261963 5958.151855,2730.523926 5961.199707,2729.792480 
	C5962.908691,2732.598633 5964.562500,2735.315186 5966.205566,2738.012939 
	C5964.515625,2740.776123 5962.850586,2743.499268 5956.592773,2745.111328 
z"/>
<path fill="#000001" opacity="1.000000" stroke="none" 
	d="
M3748.883789,4457.064453 
	C3755.412842,4416.526367 3761.429443,4377.681152 3767.997559,4338.928711 
	C3783.358887,4248.294434 3798.435791,4157.606445 3814.659668,4067.124756 
	C3830.413818,3979.263672 3846.954102,3891.535645 3864.038818,3803.922607 
	C3895.789551,3641.100342 3930.766113,3478.952637 3969.524658,3317.655762 
	C3991.932861,3224.401855 4016.030518,3131.553467 4039.424316,3038.536865 
	C4041.006348,3032.246582 4043.064453,3026.075684 4045.782959,3016.859863 
	C4049.449707,3024.174561 4052.162109,3028.597412 4053.980469,3033.361084 
	C4081.534668,3105.550049 4110.174805,3177.353027 4136.215820,3250.085693 
	C4222.348145,3490.654053 4289.389160,3736.680664 4344.580078,3986.053711 
	C4372.367676,4111.609863 4396.532227,4237.863770 4419.178223,4364.424805 
	C4420.233887,4370.325684 4420.403809,4376.463379 4422.108887,4382.153809 
	C4425.674316,4394.052246 4423.021973,4403.666504 4415.466309,4413.629395 
	C4383.603516,4455.640137 4349.630859,4495.780762 4312.901855,4533.611816 
	C4243.066406,4605.541016 4166.542969,4669.818848 4086.579590,4730.004395 
	C4012.024658,4786.119141 3936.623779,4841.109863 3861.625488,4896.636230 
	C3801.073975,4941.467285 3741.411377,4987.425293 3684.330078,5036.654297 
	C3679.895020,5040.479492 3675.130127,5043.922363 3670.937500,5047.214355 
	C3665.382324,5045.362793 3666.696289,5041.531250 3667.047363,5038.651367 
	C3670.593750,5009.554199 3674.200928,4980.462891 3678.062256,4951.406250 
	C3683.854248,4907.824707 3689.783936,4864.260742 3695.803711,4820.709961 
	C3701.733154,4777.814941 3707.706055,4734.924316 3713.918213,4692.069336 
	C3721.085938,4642.620117 3728.518066,4593.208496 3735.870117,4543.785645 
	C3740.085205,4515.451660 3744.369141,4487.127441 3748.883789,4457.064453 
z"/>
<path fill="#003C62" opacity="1.000000" stroke="none" 
	d="
M2660.095215,4469.244141 
	C2661.037354,4468.282715 2662.279541,4468.319824 2665.381836,4468.473145 
	C2667.245117,4470.235352 2667.893066,4472.867188 2667.140869,4473.359375 
	C2663.679199,4475.624512 2662.229492,4472.279297 2660.095215,4469.244141 
z"/>
<path fill="#007BC8" opacity="1.000000" stroke="none" 
	d="
M2792.643066,1786.927490 
	C2793.493408,1804.134521 2796.199707,1818.949829 2801.072021,1833.722900 
	C2814.047363,1873.064331 2816.572510,1913.406738 2807.941162,1954.004761 
	C2805.911133,1963.551392 2801.687256,1973.066772 2796.550049,1981.413208 
	C2789.240479,1993.288940 2777.380859,1995.653687 2765.327148,1988.444458 
	C2759.145752,1984.747314 2753.288818,1979.907471 2748.603271,1974.451904 
	C2741.685791,1966.398682 2734.650635,1957.979004 2729.971924,1948.568726 
	C2720.480469,1929.478882 2707.110596,1915.237671 2688.615967,1904.303955 
	C2676.205811,1896.967163 2665.154541,1886.625000 2655.145752,1876.063354 
	C2623.134033,1842.282959 2610.678955,1801.071899 2611.878174,1755.198975 
	C2612.649414,1725.692383 2617.887451,1696.828491 2626.413574,1668.712036 
	C2636.653076,1634.945801 2647.966064,1601.501221 2659.068604,1568.001953 
	C2669.964355,1535.127686 2682.107910,1502.612793 2688.756592,1468.506836 
	C2691.681396,1453.503906 2694.574463,1438.333740 2695.427246,1423.124390 
	C2696.795898,1398.706909 2715.585449,1380.611694 2741.234131,1379.498901 
	C2769.212402,1378.284790 2792.549072,1393.962036 2801.725586,1419.265381 
	C2812.751709,1449.669678 2818.716553,1480.827881 2819.663086,1513.032593 
	C2820.784424,1551.186279 2815.338623,1588.771118 2809.872314,1626.379028 
	C2804.221436,1665.260132 2798.742432,1704.174927 2793.973877,1743.171021 
	C2792.283203,1756.997559 2792.905029,1771.106689 2792.643066,1786.927490 
z"/>
<path fill="#101010" opacity="1.000000" stroke="none" 
	d="
M2016.492188,7956.226562 
	C2016.328125,7956.150879 2016.656128,7956.302246 2016.492188,7956.226562 
z"/>
<path fill="#007BC8" opacity="1.000000" stroke="none" 
	d="
M5834.911133,5514.563477 
	C5824.658203,5534.169922 5815.495117,5552.666016 5805.187500,5570.501465 
	C5798.875000,5581.423828 5790.920898,5591.458008 5780.284668,5598.808594 
	C5766.537109,5608.308594 5755.033203,5605.657227 5747.374512,5590.766602 
	C5740.262695,5576.938477 5737.401367,5561.763184 5736.395508,5546.476562 
	C5735.173828,5527.899414 5734.795410,5509.234375 5734.911621,5490.613281 
	C5734.987793,5478.375488 5733.081543,5467.252441 5727.128906,5456.219238 
	C5710.899414,5426.134766 5700.220703,5393.926270 5694.041504,5360.331055 
	C5685.543945,5314.135742 5687.687500,5268.938477 5707.497070,5225.453613 
	C5709.895020,5220.190430 5711.590820,5214.015137 5711.487305,5208.301270 
	C5710.843262,5172.753418 5746.736816,5134.328613 5790.638184,5132.645508 
	C5812.851562,5131.793457 5830.480469,5141.783691 5842.947754,5160.335938 
	C5853.315918,5175.763672 5877.414551,5237.973633 5880.655273,5256.518555 
	C5885.167969,5282.337402 5884.876953,5308.310059 5882.260254,5334.166992 
	C5875.981445,5396.211426 5859.570801,5455.716797 5834.911133,5514.563477 
z"/>
<path fill="#101010" opacity="1.000000" stroke="none" 
	d="
M5948.174805,7955.439941 
	C5947.581055,7956.000488 5947.162598,7956.000977 5946.743164,7956.000977 
	C5947.278320,7955.626953 5947.813965,7955.253418 5948.174805,7955.439941 
z"/>
<path fill="#101011" opacity="1.000000" stroke="none" 
	d="
M5947.476562,147.943954 
	C5947.651367,147.962631 5947.302246,147.925262 5947.476562,147.943954 
z"/>
</svg>